{
    "asset": {
        "version": "2.0",
        "generator": "Open Asset Import Library (assimp v5.2.cf7d3637)"
    },
    "extensionsUsed": [
        "KHR_materials_volume",
        "FB_ngon_encoding"
    ],
    "accessors": [
        {
            "bufferView": 0,
            "byteOffset": 0,
            "componentType": 5126,
            "count": 6624,
            "type": "VEC3",
            "max": [
                0.017000000923871995,
                0.02500000037252903,
                0.06700000166893006
            ],
            "min": [
                -0.014999999664723874,
                -0.014000000432133675,
                0.0
            ]
        },
        {
            "bufferView": 1,
            "byteOffset": 0,
            "componentType": 5126,
            "count": 6624,
            "type": "VEC4",
            "max": [
                0.0,
                0.6235294342041016,
                0.843137264251709,
                0.0
            ],
            "min": [
                0.0,
                0.6235294342041016,
                0.843137264251709,
                0.0
            ]
        },
        {
            "bufferView": 2,
            "byteOffset": 0,
            "componentType": 5125,
            "count": 6624,
            "type": "SCALAR",
            "max": [
                6623
            ],
            "min": [
                0
            ]
        }
    ],
    "buffers": [
        {
            "byteLength": 211968,
            "uri": "result.bin"
        }
    ],
    "bufferViews": [
        {
            "buffer": 0,
            "byteOffset": 0,
            "byteLength": 79488,
            "target": 34962
        },
        {
            "buffer": 0,
            "byteOffset": 79488,
            "byteLength": 105984,
            "target": 34962
        },
        {
            "buffer": 0,
            "byteOffset": 185472,
            "byteLength": 26496,
            "target": 34963
        }
    ],
    "materials": [
        {
            "name": "lambert2SG.001",
            "pbrMetallicRoughness": {
                "metallicFactor": 0.5,
                "roughnessFactor": 0.5
            }
        },
        {
            "name": "material"
        }
    ],
    "meshes": [
        {
            "name": "meshes[0]",
            "primitives": [
                {
                    "mode": 4,
                    "material": 0,
                    "indices": 2,
                    "attributes": {
                        "POSITION": 0,
                        "COLOR_0": 1
                    }
                }
            ]
        }
    ],
    "nodes": [
        {
            "name": "nodes[1]",
            "matrix": [
                1.0,
                0.0,
                0.0,
                0.0,
                0.0,
                2.220446049250313e-16,
                -1.0,
                0.0,
                0.0,
                1.0,
                2.220446049250313e-16,
                0.0,
                0.0,
                0.0,
                0.0,
                1.0
            ],
            "children": [
                1
            ]
        },
        {
            "name": "Mesh_Mesh_head_geo.001_lambert2SG.001",
            "mesh": 0
        }
    ],
    "scenes": [
        {
            "nodes": [
                0
            ]
        }
    ],
    "scene": 0
}